<svg width="100" height="35" viewBox="0 0 100 35" fill="none" xmlns="http://www.w3.org/2000/svg">
<path d="M37.8396 0L41.8082 6.99016H33.8711L37.8396 0Z" fill="#0D2457"/>
<path d="M33.8826 6.9895L37.8511 13.9797H29.9141L33.8826 6.9895Z" fill="#0069BB"/>
<path d="M41.8123 6.9895L45.7808 13.9797H37.8438L41.8123 6.9895Z" fill="#0069BB"/>
<path d="M45.6873 13.8954L49.6558 20.8855H41.7188L45.6873 13.8954Z" fill="#19BAD8"/>
<path d="M29.9216 13.8822L33.8905 20.8724H25.9531L29.9216 13.8822Z" fill="#19BAD8"/>
<path d="M37.8435 13.9753L33.875 6.98511H41.8121L37.8435 13.9753Z" fill="#004D9F"/>
<path d="M33.8907 20.8724L29.9219 13.8822H37.8592L33.8907 20.8724Z" fill="#008E87"/>
<path d="M41.7342 20.8724L37.7656 13.8822H45.703L41.7342 20.8724Z" fill="#008E87"/>
<path d="M0.984375 21.9294V0.802689H3.1322V21.9294H0.984375ZM17.1336 20.1487C18.2494 20.1487 19.3279 19.8972 20.3693 19.3942C21.4107 18.8912 22.2847 18.1769 22.9913 17.2513L24.386 18.7905C23.4376 19.8972 22.3312 20.7523 21.0666 21.3559C19.8021 21.9596 18.4725 22.2614 17.0778 22.2614C15.6831 22.2614 14.3721 21.9797 13.1448 21.4163C11.9361 20.8328 10.8854 20.0582 9.99279 19.0924C9.11878 18.1064 8.42143 16.9495 7.90075 15.6215C7.39865 14.2936 7.14762 12.8751 7.14762 11.366C7.14762 9.85697 7.39865 8.43847 7.90075 7.1105C8.42143 5.76242 9.12807 4.60549 10.0207 3.63968C10.9133 2.65377 11.964 1.87915 13.1727 1.31575C14.3814 0.752374 15.6831 0.470703 17.0778 0.470703C18.5097 0.470703 19.8672 0.772506 21.1503 1.37611C22.4334 1.97975 23.5306 2.83487 24.4418 3.94152L23.0192 5.54108C22.294 4.61554 21.4014 3.8912 20.3414 3.36806C19.2814 2.84493 18.1936 2.58336 17.0778 2.58336C15.9807 2.58336 14.9579 2.81474 14.0095 3.27751C13.0611 3.72018 12.2429 4.33387 11.5548 5.11855C10.8668 5.90325 10.3182 6.83888 9.9091 7.92539C9.51858 8.9918 9.32334 10.1387 9.32334 11.366C9.32334 12.5934 9.51858 13.7503 9.9091 14.8368C10.3182 15.9032 10.8668 16.8288 11.5548 17.6135C12.2429 18.3982 13.0611 19.0219 14.0095 19.4847C14.9765 19.9274 16.0179 20.1487 17.1336 20.1487Z" fill="#00506A"/>
<path d="M53.8281 0.802689H56.0595L67.4961 18.3076L67.4402 0.802689H69.4766V21.9294H67.5238L55.8083 4.03204L55.8642 21.9294H53.8281V0.802689ZM74.3928 21.9294V0.802689H76.5409V21.9294H74.3928ZM99.9982 11.366C99.9982 12.8751 99.747 14.3036 99.245 15.6517C98.7429 16.9797 98.055 18.1366 97.1808 19.1225C96.3069 20.0883 95.275 20.8529 94.0848 21.4163C92.9131 21.9797 91.6488 22.2614 90.2913 22.2614C88.9523 22.2614 87.6878 21.9797 86.4975 21.4163C85.3073 20.8529 84.2754 20.0883 83.4015 19.1225C82.5273 18.1366 81.8394 16.9797 81.3373 15.6517C80.8353 14.3036 80.5841 12.8751 80.5841 11.366C80.5841 9.85697 80.8353 8.43847 81.3373 7.1105C81.8394 5.76242 82.5273 4.60549 83.4015 3.63968C84.2754 2.65377 85.3073 1.87915 86.4975 1.31575C87.6878 0.752374 88.9523 0.470703 90.2913 0.470703C91.6488 0.470703 92.9131 0.752374 94.0848 1.31575C95.275 1.87915 96.3069 2.65377 97.1808 3.63968C98.055 4.60549 98.7429 5.76242 99.245 7.1105C99.747 8.43847 99.9982 9.85697 99.9982 11.366ZM97.8224 11.366C97.8224 10.1387 97.6273 8.9918 97.2367 7.92539C96.8463 6.83888 96.3162 5.90325 95.6468 5.11855C94.9772 4.33387 94.1776 3.72018 93.2479 3.27751C92.3366 2.81474 91.351 2.58336 90.2913 2.58336C89.2313 2.58336 88.2364 2.81474 87.3066 3.27751C86.3954 3.72018 85.6051 4.33387 84.9355 5.11855C84.2661 5.90325 83.736 6.83888 83.3456 7.92539C82.955 8.9918 82.7599 10.1387 82.7599 11.366C82.7599 12.5934 82.955 13.7503 83.3456 14.8368C83.736 15.9032 84.2661 16.8288 84.9355 17.6135C85.6051 18.3982 86.3954 19.0219 87.3066 19.4847C88.2364 19.9274 89.2313 20.1487 90.2913 20.1487C91.351 20.1487 92.3366 19.9274 93.2479 19.4847C94.1776 19.0219 94.9772 18.3982 95.6468 17.6135C96.3162 16.8288 96.8463 15.9032 97.2367 14.8368C97.6273 13.7503 97.8224 12.5934 97.8224 11.366Z" fill="#00506A"/>
<path d="M5.90813 26.7575C6.00009 26.7575 6.07435 26.7882 6.13095 26.8492C6.19461 26.9106 6.22645 26.9911 6.22645 27.0903C6.22645 27.1899 6.19461 27.2704 6.13095 27.3314C6.07435 27.385 6.00009 27.4119 5.90813 27.4119H3.71169V34.4496C3.71169 34.5491 3.67986 34.6334 3.61619 34.7022C3.55253 34.7633 3.47471 34.794 3.38275 34.794C3.28372 34.794 3.20238 34.7633 3.13872 34.7022C3.08211 34.6334 3.05381 34.5491 3.05381 34.4496V27.4119H0.857388C0.765426 27.4119 0.687615 27.3812 0.623949 27.3201C0.567358 27.2588 0.539062 27.1783 0.539062 27.079C0.539062 26.987 0.567358 26.9106 0.623949 26.8492C0.687615 26.7882 0.765426 26.7575 0.857388 26.7575H5.90813ZM13.5958 34.1167C13.6878 34.1167 13.762 34.1512 13.8186 34.2201C13.8823 34.2889 13.9141 34.3694 13.9141 34.4612C13.9141 34.5607 13.8823 34.6409 13.8186 34.7022C13.762 34.7633 13.6878 34.794 13.5958 34.794H9.70165C9.60969 34.794 9.53187 34.7633 9.46821 34.7022C9.41161 34.6334 9.38334 34.5491 9.38334 34.4496V27.1019C9.38334 27.0023 9.41161 26.9222 9.46821 26.8608C9.53187 26.7919 9.60969 26.7575 9.70165 26.7575H13.5958C13.6878 26.7575 13.762 26.7919 13.8186 26.8608C13.8823 26.9222 13.9141 27.0023 13.9141 27.1019C13.9141 27.2015 13.8823 27.2816 13.8186 27.343C13.762 27.4044 13.6878 27.4347 13.5958 27.4347H10.0518V30.3166H13.1183C13.2103 30.3166 13.2846 30.351 13.3411 30.4199C13.4048 30.4809 13.4366 30.5614 13.4366 30.661C13.4366 30.7606 13.4048 30.8407 13.3411 30.9021C13.2846 30.9634 13.2103 30.9938 13.1183 30.9938H10.0518V34.1167H13.5958ZM22.64 27.3546C22.7461 27.4235 22.7992 27.519 22.7992 27.6414C22.7992 27.7103 22.7744 27.787 22.7249 27.8712C22.6613 27.9554 22.5799 27.9974 22.4809 27.9974C22.4242 27.9974 22.3677 27.9783 22.3111 27.9401C21.7452 27.5343 21.1262 27.3314 20.4542 27.3314C19.8812 27.3314 19.3613 27.477 18.8944 27.7679C18.4346 28.0588 18.0703 28.468 17.8015 28.9962C17.5398 29.5166 17.4089 30.1099 17.4089 30.7759C17.4089 31.4569 17.5433 32.0615 17.8121 32.5897C18.0809 33.1101 18.4452 33.5159 18.905 33.8068C19.3719 34.0898 19.8883 34.2316 20.4542 34.2316C21.1262 34.2316 21.7416 34.0325 22.3005 33.6346C22.3571 33.5964 22.4172 33.5769 22.4809 33.5769C22.5799 33.5769 22.6613 33.623 22.7249 33.7147C22.7744 33.7761 22.7992 33.8487 22.7992 33.9329C22.7992 34.0554 22.7497 34.1474 22.6506 34.2085C22.3747 34.4076 22.0352 34.5761 21.632 34.7138C21.2288 34.8438 20.8362 34.9089 20.4542 34.9089C19.7822 34.9089 19.1597 34.7367 18.5867 34.3923C18.0208 34.04 17.5681 33.5503 17.2285 32.9226C16.896 32.2951 16.7298 31.5793 16.7298 30.7759C16.7298 30.0028 16.896 29.3024 17.2285 28.6746C17.561 28.0397 18.0102 27.5459 18.5761 27.1936C19.142 26.8339 19.768 26.6542 20.4542 26.6542C20.8503 26.6542 21.2359 26.7155 21.6108 26.838C21.9928 26.9604 22.3358 27.1326 22.64 27.3546ZM31.27 26.7575C31.369 26.7575 31.4468 26.7919 31.5036 26.8608C31.5672 26.9222 31.5991 27.0061 31.5991 27.1135V34.4383C31.5918 34.5454 31.5565 34.6334 31.4929 34.7022C31.4292 34.7633 31.3514 34.794 31.2593 34.794C31.1673 34.794 31.0895 34.7595 31.0258 34.6907C30.9621 34.6218 30.9303 34.5376 30.9303 34.4383V31.017H26.6225V34.4383C26.6154 34.5376 26.58 34.6218 26.5164 34.6907C26.4527 34.7595 26.3749 34.794 26.2829 34.794C26.1839 34.794 26.1025 34.7633 26.0389 34.7022C25.9823 34.6334 25.954 34.5454 25.954 34.4383V27.1135C25.954 27.0061 25.9858 26.9222 26.0495 26.8608C26.1131 26.7919 26.1945 26.7575 26.2935 26.7575C26.3855 26.7575 26.4633 26.7919 26.527 26.8608C26.5906 26.9297 26.6225 27.0139 26.6225 27.1135V30.351H30.9303V27.1135C30.9303 27.0139 30.9621 26.9297 31.0258 26.8608C31.0967 26.7919 31.178 26.7575 31.27 26.7575ZM40.8274 26.7575C40.9194 26.7575 40.99 26.7882 41.0398 26.8492C41.0962 26.9106 41.1245 26.987 41.1245 27.079V34.4267C41.1245 34.5416 41.0927 34.6334 41.029 34.7022C40.9654 34.7633 40.8875 34.794 40.7955 34.794C40.746 34.794 40.6966 34.7827 40.6471 34.7595C40.6045 34.7367 40.5692 34.7098 40.5409 34.6794L35.9889 28.0434V34.484C35.9889 34.5682 35.9571 34.6409 35.8934 34.7022C35.8367 34.7633 35.7696 34.794 35.6917 34.794C35.607 34.794 35.5361 34.7633 35.4796 34.7022C35.4229 34.6409 35.3946 34.5682 35.3946 34.484V27.1019C35.3946 26.9948 35.4229 26.9106 35.4796 26.8492C35.5433 26.7882 35.6174 26.7575 35.7024 26.7575C35.8156 26.7575 35.9004 26.7994 35.9571 26.8837L40.5304 33.5541V27.079C40.5304 26.987 40.5585 26.9106 40.6152 26.8492C40.6717 26.7882 40.7426 26.7575 40.8274 26.7575ZM51.5393 30.7759C51.5393 31.564 51.3874 32.2722 51.0832 32.8997C50.7791 33.5275 50.358 34.0209 49.8204 34.3807C49.283 34.7329 48.671 34.9089 47.9848 34.9089C47.2987 34.9089 46.6867 34.7329 46.149 34.3807C45.6116 34.0209 45.1906 33.5275 44.8865 32.8997C44.5823 32.2722 44.4301 31.564 44.4301 30.7759C44.4301 29.9797 44.5823 29.268 44.8865 28.6402C45.1906 28.0127 45.6116 27.5227 46.149 27.1708C46.6867 26.8189 47.2987 26.6426 47.9848 26.6426C48.671 26.6426 49.283 26.8189 49.8204 27.1708C50.358 27.5227 50.7791 28.0127 51.0832 28.6402C51.3874 29.268 51.5393 29.9797 51.5393 30.7759ZM50.8604 30.7759C50.8604 30.1099 50.7365 29.5166 50.4888 28.9962C50.2484 28.468 49.9089 28.0588 49.4702 27.7679C49.0388 27.477 48.5436 27.3314 47.9848 27.3314C47.4261 27.3314 46.9272 27.477 46.4888 27.7679C46.0573 28.0588 45.7176 28.468 45.4701 28.9962C45.2297 29.5166 45.1093 30.1099 45.1093 30.7759C45.1093 31.4416 45.2297 32.0387 45.4701 32.5669C45.7176 33.0872 46.0573 33.493 46.4888 33.7836C46.9272 34.0745 47.4261 34.2201 47.9848 34.2201C48.5436 34.2201 49.0388 34.0745 49.4702 33.7836C49.9089 33.493 50.2484 33.0872 50.4888 32.5669C50.7365 32.0387 50.8604 31.4416 50.8604 30.7759ZM58.9523 34.1167C59.0443 34.1167 59.1187 34.1474 59.1751 34.2085C59.2388 34.2698 59.2706 34.35 59.2706 34.4496C59.2706 34.5491 59.2388 34.6334 59.1751 34.7022C59.1187 34.7633 59.0443 34.794 58.9523 34.794H55.1643C55.0723 34.794 54.9945 34.7633 54.9308 34.7022C54.8744 34.6334 54.846 34.5491 54.846 34.4496V27.1019C54.846 27.0023 54.8778 26.9222 54.9415 26.8608C55.0052 26.7919 55.0865 26.7575 55.1855 26.7575C55.2775 26.7575 55.3553 26.7919 55.419 26.8608C55.4826 26.9222 55.5145 27.0023 55.5145 27.1019V34.1167H58.9523ZM68.8146 30.7759C68.8146 31.564 68.6627 32.2722 68.3586 32.8997C68.0541 33.5275 67.6334 34.0209 67.0957 34.3807C66.558 34.7329 65.9463 34.9089 65.2602 34.9089C64.5741 34.9089 63.962 34.7329 63.4244 34.3807C62.8867 34.0209 62.4659 33.5275 62.1618 32.8997C61.8577 32.2722 61.7054 31.564 61.7054 30.7759C61.7054 29.9797 61.8577 29.268 62.1618 28.6402C62.4659 28.0127 62.8867 27.5227 63.4244 27.1708C63.962 26.8189 64.5741 26.6426 65.2602 26.6426C65.9463 26.6426 66.558 26.8189 67.0957 27.1708C67.6334 27.5227 68.0541 28.0127 68.3586 28.6402C68.6627 29.268 68.8146 29.9797 68.8146 30.7759ZM68.1357 30.7759C68.1357 30.1099 68.0119 29.5166 67.7642 28.9962C67.5237 28.468 67.1843 28.0588 66.7456 27.7679C66.3141 27.477 65.819 27.3314 65.2602 27.3314C64.7014 27.3314 64.2025 27.477 63.7641 27.7679C63.3323 28.0588 62.9929 28.468 62.7452 28.9962C62.5047 29.5166 62.3846 30.1099 62.3846 30.7759C62.3846 31.4416 62.5047 32.0387 62.7452 32.5669C62.9929 33.0872 63.3323 33.493 63.7641 33.7836C64.2025 34.0745 64.7014 34.2201 65.2602 34.2201C65.819 34.2201 66.3141 34.0745 66.7456 33.7836C67.1843 33.493 67.5237 33.0872 67.7642 32.5669C68.0119 32.0387 68.1357 31.4416 68.1357 30.7759ZM77.5434 30.7415C77.6355 30.7415 77.7095 30.7759 77.7663 30.8448C77.8299 30.9058 77.8617 30.9863 77.8617 31.0859V33.8525C77.8617 33.9827 77.8088 34.0861 77.7026 34.1628C77.3843 34.3998 77.0307 34.5836 76.6414 34.7138C76.2525 34.8438 75.8564 34.9089 75.453 34.9089C74.7315 34.9089 74.0807 34.7289 73.5008 34.3694C72.9206 34.0097 72.4643 33.5159 72.1318 32.8881C71.7996 32.2606 71.6332 31.5565 71.6332 30.7759C71.6332 29.995 71.7996 29.2908 72.1318 28.6634C72.4643 28.0356 72.9206 27.5421 73.5008 27.1824C74.0807 26.8226 74.7315 26.6426 75.453 26.6426C75.828 26.6426 76.1889 26.6924 76.5352 26.7919C76.8891 26.8915 77.204 27.033 77.4798 27.2168C77.5787 27.2857 77.6282 27.3812 77.6282 27.5036C77.6282 27.6032 77.5964 27.6874 77.5327 27.7563C77.4763 27.8252 77.4089 27.8596 77.3313 27.8596C77.2604 27.8596 77.1968 27.8405 77.1403 27.8023C76.6096 27.4883 76.0473 27.3314 75.453 27.3314C74.8519 27.3314 74.3108 27.4808 73.8296 27.7792C73.3556 28.0779 72.9843 28.4912 72.7154 29.0191C72.4466 29.5397 72.3123 30.1253 72.3123 30.7759C72.3123 31.4262 72.4466 32.0158 72.7154 32.5437C72.9843 33.0644 73.3556 33.4736 73.8296 33.7723C74.3108 34.0707 74.8519 34.2201 75.453 34.2201C75.7574 34.2201 76.0615 34.174 76.3657 34.0823C76.6767 33.9902 76.9528 33.8641 77.1933 33.7034V31.4303H75.5166C75.4249 31.4303 75.347 31.3996 75.2834 31.3382C75.2197 31.2694 75.1879 31.1851 75.1879 31.0859C75.1879 30.9863 75.2197 30.9058 75.2834 30.8448C75.347 30.7759 75.4249 30.7415 75.5166 30.7415H77.5434ZM81.9715 34.4383C81.9643 34.5376 81.929 34.6218 81.8653 34.6907C81.8016 34.7595 81.7238 34.794 81.6318 34.794C81.5328 34.794 81.4515 34.7633 81.3878 34.7022C81.3311 34.6334 81.303 34.5454 81.303 34.4383V27.1135C81.303 27.0061 81.3349 26.9222 81.3985 26.8608C81.4622 26.7919 81.5435 26.7575 81.6425 26.7575C81.7345 26.7575 81.8124 26.7919 81.876 26.8608C81.9397 26.9297 81.9715 27.0139 81.9715 27.1135V34.4383ZM89.972 34.1167C90.064 34.1167 90.1381 34.1512 90.1948 34.2201C90.2584 34.2889 90.2903 34.3694 90.2903 34.4612C90.2903 34.5607 90.2584 34.6409 90.1948 34.7022C90.1381 34.7633 90.064 34.794 89.972 34.794H86.0778C85.9858 34.794 85.9079 34.7633 85.8443 34.7022C85.7878 34.6334 85.7595 34.5491 85.7595 34.4496V27.1019C85.7595 27.0023 85.7878 26.9222 85.8443 26.8608C85.9079 26.7919 85.9858 26.7575 86.0778 26.7575H89.972C90.064 26.7575 90.1381 26.7919 90.1948 26.8608C90.2584 26.9222 90.2903 27.0023 90.2903 27.1019C90.2903 27.2015 90.2584 27.2816 90.1948 27.343C90.1381 27.4044 90.064 27.4347 89.972 27.4347H86.4279V30.3166H89.4945C89.5865 30.3166 89.6606 30.351 89.7173 30.4199C89.781 30.4809 89.8128 30.5614 89.8128 30.661C89.8128 30.7606 89.781 30.8407 89.7173 30.9021C89.6606 30.9634 89.5865 30.9938 89.4945 30.9938H86.4279V34.1167H89.972ZM95.5995 34.9089C95.0902 34.9089 94.6373 34.8172 94.2412 34.6334C93.8522 34.4496 93.4737 34.1628 93.1059 33.7723C93.0211 33.6956 92.9786 33.6039 92.9786 33.4968C92.9786 33.4047 93.0104 33.3208 93.0741 33.2441C93.1447 33.1677 93.2226 33.1292 93.3076 33.1292C93.3924 33.1292 93.4703 33.1677 93.5409 33.2441C94.0927 33.9023 94.7826 34.2316 95.6102 34.2316C96.1195 34.2316 96.5403 34.1014 96.8728 33.8412C97.2122 33.581 97.3821 33.2404 97.3821 32.8192C97.3821 32.4902 97.2973 32.2184 97.1274 32.0042C96.9648 31.7822 96.7489 31.6025 96.4801 31.4647C96.2113 31.327 95.8683 31.1851 95.4511 31.0398C94.9982 30.8942 94.6162 30.7336 94.3048 30.5577C94.0007 30.3817 93.7533 30.1481 93.5623 29.8572C93.3713 29.5588 93.2758 29.1837 93.2758 28.7322C93.2758 28.3265 93.3748 27.9667 93.5727 27.653C93.7779 27.3392 94.0609 27.0944 94.4217 26.9181C94.7895 26.7346 95.2103 26.6426 95.6843 26.6426C96.1158 26.6426 96.5191 26.723 96.8939 26.8837C97.2759 27.0368 97.5803 27.2588 97.8066 27.5496C97.9125 27.6799 97.9658 27.7907 97.9658 27.8825C97.9658 27.9667 97.9305 28.0472 97.8596 28.1236C97.7889 28.1925 97.7111 28.2269 97.626 28.2269C97.5554 28.2269 97.4952 28.2003 97.4457 28.1467C97.2548 27.9019 97.0001 27.7028 96.6818 27.5496C96.3635 27.3965 96.031 27.3201 95.6843 27.3201C95.168 27.3201 94.747 27.4463 94.4217 27.699C94.0962 27.9438 93.9336 28.2807 93.9336 28.7091C93.9336 29.1531 94.0892 29.4937 94.4003 29.7311C94.7117 29.9684 95.1573 30.1863 95.7375 30.3855C96.2396 30.5461 96.65 30.7108 96.9683 30.8792C97.2866 31.0474 97.5447 31.2884 97.7429 31.6025C97.9481 31.9084 98.0505 32.3142 98.0505 32.8192C98.0505 33.2097 97.9443 33.5657 97.7322 33.8869C97.5271 34.201 97.2371 34.4496 96.8621 34.6334C96.4943 34.8172 96.0735 34.9089 95.5995 34.9089Z" fill="#00506A"/>
</svg>
